# File created by Blade
# Date/Time:  Thu Jan 22 16:05:08 2015
#---------------------------------------------------------
:version 1.10
:name HOM
:units
  mass 1.0
  length 1.000000
  angle deg
:documentation
     Acclaim Skeleton File
:root
   axis xyz
   order TX TY TZ RX RY RZ
   position 0.000000 0.000000 0.000000
   orientation 0 0 0
:bonedata
   begin
      id 1
      name RightUpLeg_dum
      direction -1.000000 0.000000 0.000000
      length 3.766986
      axis 0.0 0.0 0.0 xyz
   end
   begin
      id 2
      name LeftUpLeg_dum
      direction 1.000000 0.000000 0.000000
      length 3.766986
      axis 0.0 0.0 0.0 xyz
   end
   begin
      id 3
      name Spine_dum
      direction 0.000000 1.000000 0.000000
      length 7.779697
      axis 0.0 0.0 0.0 xyz
   end
   begin
      id 4
      name RightUpLeg
      direction 0.000000 -1.000000 0.000000
      length 18.017682
      axis 0.0 0.0 0.0 xyz
      dof rx ry rz
   end
   begin
      id 5
      name RightLeg
      direction 0.000000 -1.000000 0.000000
      length 16.881075
      axis 0.0 0.0 0.0 xyz
      dof rx ry rz
   end
   begin
      id 6
      name RightFoot
      direction 0.000000 -0.258819 0.965926
      length 5.770812
      axis 15.0 0.0 0.0 xyz
      dof rx ry rz
   end
   begin
      id 7
      name RightToeBase
      direction 0.000000 0.000000 1.000000
      length 2.952750
      axis 0.0 0.0 0.0 xyz
      dof rx ry rz
   end
   begin
      id 8
      name LeftUpLeg
      direction 0.000000 -1.000000 0.000000
      length 18.017682
      axis 0.0 0.0 0.0 xyz
      dof rx ry rz
   end
   begin
      id 9
      name LeftLeg
      direction 0.000000 -1.000000 0.000000
      length 16.881075
      axis 0.0 0.0 0.0 xyz
      dof rx ry rz
   end
   begin
      id 10
      name LeftFoot
      direction 0.000000 -0.258819 0.965926
      length 5.770812
      axis 15.0 0.0 0.0 xyz
      dof rx ry rz
   end
   begin
      id 11
      name LeftToeBase
      direction 0.000000 0.000000 1.000000
      length 2.952750
      axis 0.0 0.0 0.0 xyz
      dof rx ry rz
   end
   begin
      id 12
      name Spine
      direction 0.000000 1.000000 0.000000
      length 0.000000
      axis 0.0 0.0 0.0 xyz
      dof rx ry rz
   end
   begin
      id 13
      name Spine_dum1
      direction 0.000000 1.000000 0.000000
      length 10.941760
      axis 0.0 0.0 0.0 xyz
   end
   begin
      id 14
      name Spine_dum2
      direction 0.000000 1.000000 0.000000
      length 10.941760
      axis 0.0 0.0 0.0 xyz
   end
   begin
      id 15
      name Spine_dum3
      direction 0.000000 1.000000 0.000000
      length 16.646042
      axis 0.0 0.0 0.0 xyz
   end
   begin
      id 16
      name RightShoulder
      direction -1.000000 0.000000 0.000000
      length 7.708937
      axis 0.0 0.0 90.0 xyz
      dof rx ry rz
   end
   begin
      id 17
      name RightArm
      direction -1.000000 0.000000 0.000000
      length 11.521345
      axis 0.0 0.0 90.0 xyz
      dof rx ry rz
   end
   begin
      id 18
      name RightForeArm
      direction -1.000000 0.000000 0.000000
      length 10.175898
      axis 0.0 0.0 90.0 xyz
      dof ry rz rx
   end
   begin
      id 19
      name RightHand
      direction -1.000000 0.000000 0.000000
      length 0.000000
      axis 0.0 0.0 90.0 xyz
      dof rx ry rz
   end
   begin
      id 20
      name RightHand_dum1
      direction -1.000000 0.000000 0.000000
      length 3.937000
      axis 0.0 0.0 90.0 xyz
   end
   begin
      id 21
      name RightHand_dum2
      direction 0.000000 0.000000 0.000000
      length 0.000000
      axis 0.0 0.0 90.0 xyz
   end
   begin
      id 22
      name RightHandThumb1
      direction 0.000000 0.000000 1.000000
      length 3.937000
      axis 0.0 0.0 90.0 xyz
      dof rx rz ry
   end
   begin
      id 23
      name LeftShoulder
      direction 1.000000 0.000000 0.000000
      length 7.708937
      axis 0.0 0.0 -90.0 xyz
      dof rx ry rz
   end
   begin
      id 24
      name LeftArm
      direction 1.000000 0.000000 0.000000
      length 11.521345
      axis 0.0 0.0 -90.0 xyz
      dof rx ry rz
   end
   begin
      id 25
      name LeftForeArm
      direction 1.000000 0.000000 0.000000
      length 10.175898
      axis 0.0 0.0 -90.0 xyz
      dof ry rz rx
   end
   begin
      id 26
      name LeftHand
      direction 1.000000 0.000000 0.000000
      length 0.000000
      axis 0.0 0.0 -90.0 xyz
      dof rx ry rz
   end
   begin
      id 27
      name LeftHand_dum1
      direction 1.000000 0.000000 0.000000
      length 3.937000
      axis 0.0 0.0 -90.0 xyz
   end
   begin
      id 28
      name LeftHand_dum2
      direction 0.000000 0.000000 0.000000
      length 0.000000
      axis 0.0 0.0 -90.0 xyz
   end
   begin
      id 29
      name LeftHandThumb1
      direction 0.000000 0.000000 1.000000
      length 3.937000
      axis 0.0 0.0 -90.0 xyz
      dof rx rz ry
   end
   begin
      id 30
      name Head
      direction 0.000000 1.000000 0.000000
      length 4.527550
      axis 0.0 0.0 0.0 xyz
      dof rx ry rz
   end
:hierarchy
   begin
      root RightUpLeg_dum LeftUpLeg_dum Spine_dum
      RightUpLeg_dum RightUpLeg
      LeftUpLeg_dum LeftUpLeg
      Spine_dum Spine
      RightUpLeg RightLeg
      RightLeg RightFoot
      RightFoot RightToeBase
      LeftUpLeg LeftLeg
      LeftLeg LeftFoot
      LeftFoot LeftToeBase
      Spine Spine_dum1 Spine_dum2 Spine_dum3
      Spine_dum1 RightShoulder
      Spine_dum2 LeftShoulder
      Spine_dum3 Head
      RightShoulder RightArm
      RightArm RightForeArm
      RightForeArm RightHand
      RightHand RightHand_dum1 RightHand_dum2
      RightHand_dum2 RightHandThumb1
      LeftShoulder LeftArm
      LeftArm LeftForeArm
      LeftForeArm LeftHand
      LeftHand LeftHand_dum1 LeftHand_dum2
      LeftHand_dum2 LeftHandThumb1
   end

# File created by Blade
# Date/Time:  Thu Jan 22 16:04:59 2015
# Frame Rate: 120.000 fps
#------------------------------------------------------
:FULLY-SPECIFIED
:DEGREES
96
root 3.400119 36.924575 5.380507 -3.189102 -5.154744 1.560036
RightUpLeg 9.351205 -4.451436 -8.893890
RightLeg -2.917908 -0.000000 0.000000
RightFoot -10.577120 -9.727351 20.667725
RightToeBase 15.573116 -0.000000 -0.000000
LeftUpLeg 9.066309 4.860428 7.074417
LeftLeg -1.832059 -0.000000 0.000000
LeftFoot -6.862963 7.693262 -21.508476
LeftToeBase 9.303285 -0.000000 -0.000000
Spine 7.897499 -3.158920 -2.443324
RightShoulder -5.529764 -13.588528 -27.866693
RightArm 8.931729 29.689618 34.106312
RightForeArm 7.261235 -0.000000 19.898522
RightHand 2.005072 -0.000000 6.499494
RightHandThumb1 -24.326973 -0.000000 -32.862282
LeftShoulder -28.555227 35.303449 12.377502
LeftArm 41.249427 -48.606496 -54.028513
LeftForeArm 35.444128 -0.000000 6.121638
LeftHand -17.646396 -0.000000 -6.312875
LeftHandThumb1 -26.253704 0.000000 33.147579
Head 3.256762 15.079542 3.252176
97
root 3.384226 36.929712 5.375543 -3.123305 -5.283050 1.467055
RightUpLeg 9.146375 -4.250798 -8.753051
RightLeg -2.697865 -0.000000 0.000000
RightFoot -10.643800 -9.705805 20.714280
RightToeBase 15.546911 -0.000000 -0.000000
LeftUpLeg 9.012674 5.023125 7.196035
LeftLeg -1.781420 -0.000000 0.000000
LeftFoot -6.900675 7.681248 -21.562574
LeftToeBase 9.348003 -0.000000 -0.000000
Spine 7.875608 -3.216079 -2.387962
RightShoulder -5.535451 -13.606002 -27.923989
RightArm 8.908064 29.821688 34.218073
RightForeArm 7.530816 -0.000000 19.876703
RightHand 1.968359 -0.000000 6.325072
RightHandThumb1 -24.326973 -0.000000 -32.862282
LeftShoulder -28.584945 35.250466 12.370850
LeftArm 41.050788 -48.558587 -53.879040
LeftForeArm 35.582082 -0.000000 6.154802
LeftHand -17.661993 -0.000000 -6.303824
LeftHandThumb1 -26.253704 0.000000 33.147579
Head 3.148846 15.191032 3.308876
98
root 3.366371 36.934917 5.368076 -3.044468 -5.436635 1.363754
RightUpLeg 8.890238 -4.086780 -8.607828
RightLeg -2.417584 -0.000000 0.000000
RightFoot -10.689699 -9.583092 20.740547
RightToeBase 15.612433 -0.000000 -0.000000
LeftUpLeg 8.941543 5.194030 7.329201
LeftLeg -1.709545 -0.000000 0.000000
LeftFoot -6.920087 7.700200 -21.524298
LeftToeBase 9.235413 -0.000000 -0.000000
Spine 7.846848 -3.252069 -2.336325
RightShoulder -5.547235 -13.602593 -27.972917
RightArm 8.831028 29.801128 34.276807
RightForeArm 7.922948 -0.000000 19.837079
RightHand 1.953899 0.000000 6.133364
RightHandThumb1 -24.326973 -0.000000 -32.862282
LeftShoulder -28.582798 35.218519 12.434002
LeftArm 40.904229 -48.576352 -53.891533
LeftForeArm 35.710387 -0.000000 6.228723
LeftHand -17.651270 -0.000000 -6.331225
LeftHandThumb1 -26.253704 0.000000 33.147579
Head 3.030387 15.226761 3.361878
99
root 3.349101 36.941115 5.362397 -2.975994 -5.607143 1.267767
RightUpLeg 8.616604 -3.962447 -8.478790
RightLeg -2.081215 -0.000000 0.000000
RightFoot -10.756018 -9.406447 20.779627
RightToeBase 15.602955 -0.000000 -0.000000
LeftUpLeg 8.896761 5.368250 7.452072
LeftLeg -1.661739 -0.000000 0.000000
LeftFoot -6.979634 7.730155 -21.585413
LeftToeBase 9.312745 -0.000000 -0.000000
Spine 7.820841 -3.300840 -2.287087
RightShoulder -5.544379 -13.649558 -28.021793
RightArm 8.760886 30.022129 34.399088
RightForeArm 7.972844 -0.000000 19.834443
RightHand 2.102558 -0.000000 5.820453
RightHandThumb1 -24.326973 -0.000000 -32.862282
LeftShoulder -28.568839 35.155840 12.480772
LeftArm 40.753085 -48.614876 -53.853576
LeftForeArm 35.799490 -0.000000 6.245634
LeftHand -17.749167 -0.000000 -6.311767
LeftHandThumb1 -26.253704 0.000000 33.147579
Head 2.946705 15.345788 3.426917
